<svg width="53" height="54" viewBox="0 0 53 54" fill="none" xmlns="http://www.w3.org/2000/svg">
<g clip-path="url(#clip0_1_1060)">
<rect x="0.890015" y="0.622566" width="52.476" height="52.476" rx="26.238" fill="#1E1E1E" fill-opacity="0.12"/>
<path fill-rule="evenodd" clip-rule="evenodd" d="M14.8027 15.9281H38.3634C38.9548 15.9281 39.4343 16.4175 39.4343 17.0213V22.4876C39.4343 23.0914 38.9548 23.5808 38.3634 23.5808H37.2924V22.4876C37.2924 21.8838 36.813 21.3943 36.2215 21.3943H37.2924V18.1146H15.8736V21.3943H16.9446C16.3531 21.3943 15.8736 21.8838 15.8736 22.4876V23.5808H14.8027C14.2112 23.5808 13.7318 23.0914 13.7318 22.4876V17.0213C13.7318 16.4175 14.2112 15.9281 14.8027 15.9281ZM18.0155 23.5808H15.8736V36.6998C15.8736 37.3036 16.3531 37.7931 16.9446 37.7931H36.2215C36.813 37.7931 37.2924 37.3036 37.2924 36.6998V23.5808H35.1506V22.4876C35.1506 21.8838 35.63 21.3943 36.2215 21.3943H16.9446C17.536 21.3943 18.0155 21.8838 18.0155 22.4876V23.5808ZM18.0155 23.5808H35.1506V35.6066H18.0155V23.5808ZM23.3702 26.8606C23.3702 27.4644 23.8497 27.9538 24.4411 27.9538H28.7249C29.3163 27.9538 29.7958 27.4644 29.7958 26.8606C29.7958 26.2568 29.3163 25.7673 28.7249 25.7673H24.4411C23.8497 25.7673 23.3702 26.2568 23.3702 26.8606Z" fill="black"/>
<mask id="mask0_1_1060" style="mask-type:luminance" maskUnits="userSpaceOnUse" x="13" y="15" width="27" height="23">
<path fill-rule="evenodd" clip-rule="evenodd" d="M14.8027 15.9281H38.3634C38.9548 15.9281 39.4343 16.4175 39.4343 17.0213V22.4876C39.4343 23.0914 38.9548 23.5808 38.3634 23.5808H37.2924V22.4876C37.2924 21.8838 36.813 21.3943 36.2215 21.3943H37.2924V18.1146H15.8736V21.3943H16.9446C16.3531 21.3943 15.8736 21.8838 15.8736 22.4876V23.5808H14.8027C14.2112 23.5808 13.7318 23.0914 13.7318 22.4876V17.0213C13.7318 16.4175 14.2112 15.9281 14.8027 15.9281ZM18.0155 23.5808H15.8736V36.6998C15.8736 37.3036 16.3531 37.7931 16.9446 37.7931H36.2215C36.813 37.7931 37.2924 37.3036 37.2924 36.6998V23.5808H35.1506V22.4876C35.1506 21.8838 35.63 21.3943 36.2215 21.3943H16.9446C17.536 21.3943 18.0155 21.8838 18.0155 22.4876V23.5808ZM18.0155 23.5808H35.1506V35.6066H18.0155V23.5808ZM23.3702 26.8606C23.3702 27.4644 23.8497 27.9538 24.4411 27.9538H28.7249C29.3163 27.9538 29.7958 27.4644 29.7958 26.8606C29.7958 26.2568 29.3163 25.7673 28.7249 25.7673H24.4411C23.8497 25.7673 23.3702 26.2568 23.3702 26.8606Z" fill="white"/>
</mask>
<g mask="url(#mask0_1_1060)">
<rect x="13.7318" y="13.7416" width="25.7025" height="26.238" fill="#5E5873"/>
</g>
</g>
<defs>
<clipPath id="clip0_1_1060">
<rect width="52.476" height="52.476" fill="white" transform="translate(0.4245 0.622559)"/>
</clipPath>
</defs>
</svg>
