<svg width="53" height="53" viewBox="0 0 53 53" fill="none" xmlns="http://www.w3.org/2000/svg">
<g clip-path="url(#clip0_1_1028)">
<rect x="0.890015" y="0.0204163" width="52.476" height="52.476" rx="26.238" fill="#00BA62" fill-opacity="0.17"/>
<path fill-rule="evenodd" clip-rule="evenodd" d="M21.7638 15.4903L36.757 25.3542C37.0782 25.4638 37.2924 25.9022 37.2924 26.231C37.2924 26.5598 37.0782 26.8886 36.757 27.1078L21.7638 36.9717C21.6567 37.0813 21.4425 37.1909 21.2283 37.1909C21.0142 37.1909 20.9071 37.1909 20.6929 37.0813C20.3716 36.8621 20.1574 36.5333 20.1574 36.0949V16.3671C20.1574 15.9287 20.3716 15.5999 20.6929 15.4903C21.0142 15.2711 21.4425 15.2711 21.7638 15.4903ZM34.2938 26.231L22.2993 18.3399V34.1222L34.2938 26.231Z" fill="black"/>
<mask id="mask0_1_1028" style="mask-type:luminance" maskUnits="userSpaceOnUse" x="20" y="15" width="18" height="23">
<path fill-rule="evenodd" clip-rule="evenodd" d="M21.7638 15.4903L36.757 25.3542C37.0782 25.4638 37.2924 25.9022 37.2924 26.231C37.2924 26.5598 37.0782 26.8886 36.757 27.1078L21.7638 36.9717C21.6567 37.0813 21.4425 37.1909 21.2283 37.1909C21.0142 37.1909 20.9071 37.1909 20.6929 37.0813C20.3716 36.8621 20.1574 36.5333 20.1574 36.0949V16.3671C20.1574 15.9287 20.3716 15.5999 20.6929 15.4903C21.0142 15.2711 21.4425 15.2711 21.7638 15.4903ZM34.2938 26.231L22.2993 18.3399V34.1222L34.2938 26.231Z" fill="white"/>
</mask>
<g mask="url(#mask0_1_1028)">
<rect x="15.8737" y="13.1394" width="25.7025" height="26.238" fill="#28C76F"/>
</g>
</g>
<defs>
<clipPath id="clip0_1_1028">
<rect width="52.476" height="52.476" fill="white" transform="translate(0.4245 0.0204315)"/>
</clipPath>
</defs>
</svg>
