<svg width="53" height="54" viewBox="0 0 53 54" fill="none" xmlns="http://www.w3.org/2000/svg">
<g clip-path="url(#clip0_1_1052)">
<rect x="0.890015" y="0.72203" width="52.476" height="52.476" rx="26.238" fill="#FF0A00" fill-opacity="0.12"/>
<path d="M26.5098 38.9858C24.8903 38.9858 23.3684 38.6701 21.944 38.0388C20.5197 37.4074 19.2807 36.5506 18.227 35.4683C17.1734 34.3859 16.3392 33.1132 15.7246 31.6501C15.11 30.187 14.8027 28.6236 14.8027 26.96C14.8027 25.2965 15.11 23.7331 15.7246 22.27C16.3392 20.8069 17.1734 19.5341 18.227 18.4518C19.2807 17.3695 20.5197 16.5127 21.944 15.8813C23.3684 15.25 24.8903 14.9343 26.5098 14.9343C28.2659 14.9343 29.9 15.3001 31.4122 16.0316C32.9244 16.7632 34.2366 17.7804 35.3487 19.0832L26.5098 28.1626V16.7381C23.7782 16.7381 21.4367 17.7403 19.4855 19.7446C17.5343 21.7489 16.5587 24.154 16.5587 26.96C16.5587 29.766 17.5343 32.1712 19.4855 34.1755C21.4367 36.1798 23.7782 37.1819 26.5098 37.1819C28.0318 37.1819 29.5586 36.761 31.0903 35.9192C32.622 35.0774 33.8171 34.1354 34.6756 33.0932V35.5885C33.5439 36.7109 32.2805 37.5577 30.8854 38.129C29.4903 38.7002 28.0318 38.9858 26.5098 38.9858ZM37.3097 34.5663C37.056 34.5663 36.8463 34.4811 36.6804 34.3108C36.5146 34.1404 36.4317 33.925 36.4317 33.6644V25.6372C36.4317 25.3766 36.5146 25.1612 36.6804 24.9908C36.8463 24.8205 37.056 24.7353 37.3097 24.7353C37.5633 24.7353 37.7731 24.8205 37.9389 24.9908C38.1048 25.1612 38.1877 25.3766 38.1877 25.6372V33.6644C38.1877 33.925 38.1048 34.1404 37.9389 34.3108C37.7731 34.4811 37.5633 34.5663 37.3097 34.5663ZM37.3975 38.7753C37.1243 38.7753 36.8951 38.6801 36.7097 38.4897C36.5243 38.2993 36.4317 38.0638 36.4317 37.7832C36.4317 37.5026 36.5243 37.2671 36.7097 37.0767C36.8951 36.8863 37.1243 36.7911 37.3975 36.7911C37.6707 36.7911 37.8999 36.8863 38.0853 37.0767C38.2707 37.2671 38.3633 37.5026 38.3633 37.7832C38.3633 38.0638 38.2707 38.2993 38.0853 38.4897C37.8999 38.6801 37.6707 38.7753 37.3975 38.7753Z" fill="#EA5455"/>
</g>
<defs>
<clipPath id="clip0_1_1052">
<rect width="52.476" height="52.476" fill="white" transform="translate(0.4245 0.722015)"/>
</clipPath>
</defs>
</svg>
