<svg width="46" height="46" viewBox="0 0 46 46" fill="none" xmlns="http://www.w3.org/2000/svg">
<rect x="0.183838" y="0.393433" width="44.8233" height="44.8233" rx="5.46625" fill="#62A5FF"/>
<path d="M25.8688 23.4243L20.5607 28.7324C20.3838 28.9093 20.2069 28.9978 19.9415 28.9978C19.6761 28.9978 19.4991 28.9093 19.3222 28.7324C18.9683 28.3785 18.9683 27.8477 19.3222 27.4938L24.0109 22.8051L19.3222 18.1163C18.9683 17.7625 18.9683 17.2316 19.3222 16.8778C19.6761 16.5239 20.2069 16.5239 20.5607 16.8778L25.8688 22.1858C26.2226 22.5397 26.2226 23.0705 25.8688 23.4243Z" fill="black"/>
<mask id="mask0_1_1066" style="mask-type:luminance" maskUnits="userSpaceOnUse" x="19" y="16" width="8" height="13">
<path d="M25.8688 23.4243L20.5607 28.7324C20.3838 28.9093 20.2069 28.9978 19.9415 28.9978C19.6761 28.9978 19.4991 28.9093 19.3222 28.7324C18.9683 28.3785 18.9683 27.8477 19.3222 27.4938L24.0109 22.8051L19.3222 18.1163C18.9683 17.7625 18.9683 17.2316 19.3222 16.8778C19.6761 16.5239 20.2069 16.5239 20.5607 16.8778L25.8688 22.1858C26.2226 22.5397 26.2226 23.0705 25.8688 23.4243Z" fill="white"/>
</mask>
<g mask="url(#mask0_1_1066)">
<rect x="11.9794" y="12.189" width="21.2321" height="21.2321" fill="white"/>
</g>
</svg>
