<svg width="53" height="54" viewBox="0 0 53 54" fill="none" xmlns="http://www.w3.org/2000/svg">
<g clip-path="url(#clip0_1_1044)">
<rect x="0.890015" y="0.821495" width="52.476" height="52.476" rx="26.238" fill="#1E1E1E" fill-opacity="0.12"/>
<path fill-rule="evenodd" clip-rule="evenodd" d="M33.0086 17.2203H28.7249C28.0823 17.2203 27.6539 17.6576 27.6539 18.3135V35.8055C27.6539 36.4615 28.0823 36.8988 28.7249 36.8988H33.0086C33.6512 36.8988 34.0796 36.4615 34.0796 35.8055V18.3135C34.0796 17.6576 33.6512 17.2203 33.0086 17.2203ZM20.1574 17.2203H24.4411C25.0837 17.2203 25.5121 17.6576 25.5121 18.3135V35.8055C25.5121 36.4615 25.0837 36.8988 24.4411 36.8988H20.1574C19.5148 36.8988 19.0864 36.4615 19.0864 35.8055V18.3135C19.0864 17.6576 19.5148 17.2203 20.1574 17.2203ZM21.2283 34.7123H23.3702V19.4068H21.2283V34.7123ZM29.7958 34.7123H31.9377V19.4068H29.7958V34.7123Z" fill="black"/>
<mask id="mask0_1_1044" style="mask-type:luminance" maskUnits="userSpaceOnUse" x="19" y="17" width="16" height="20">
<path fill-rule="evenodd" clip-rule="evenodd" d="M33.0086 17.2203H28.7249C28.0823 17.2203 27.6539 17.6576 27.6539 18.3135V35.8055C27.6539 36.4615 28.0823 36.8988 28.7249 36.8988H33.0086C33.6512 36.8988 34.0796 36.4615 34.0796 35.8055V18.3135C34.0796 17.6576 33.6512 17.2203 33.0086 17.2203ZM20.1574 17.2203H24.4411C25.0837 17.2203 25.5121 17.6576 25.5121 18.3135V35.8055C25.5121 36.4615 25.0837 36.8988 24.4411 36.8988H20.1574C19.5148 36.8988 19.0864 36.4615 19.0864 35.8055V18.3135C19.0864 17.6576 19.5148 17.2203 20.1574 17.2203ZM21.2283 34.7123H23.3702V19.4068H21.2283V34.7123ZM29.7958 34.7123H31.9377V19.4068H29.7958V34.7123Z" fill="white"/>
</mask>
<g mask="url(#mask0_1_1044)">
<rect x="13.7318" y="13.9405" width="25.7025" height="26.238" fill="#6E6B7B"/>
</g>
</g>
<defs>
<clipPath id="clip0_1_1044">
<rect width="52.476" height="52.476" fill="white" transform="translate(0.4245 0.821503)"/>
</clipPath>
</defs>
</svg>
