<svg width="53" height="54" viewBox="0 0 53 54" fill="none" xmlns="http://www.w3.org/2000/svg">
<g clip-path="url(#clip0_1_1036)">
<rect x="0.890015" y="0.920959" width="52.476" height="52.476" rx="26.238" fill="#4FC3F7" fill-opacity="0.2"/>
<path fill-rule="evenodd" clip-rule="evenodd" d="M38.0421 21.3648L27.3327 32.2973C27.1185 32.5159 26.9043 32.6252 26.583 32.6252H22.2993C21.6567 32.6252 21.2283 32.1879 21.2283 31.532V27.159C21.2283 26.831 21.3354 26.6124 21.5496 26.3937L32.259 15.4612C32.6874 15.0239 33.3299 15.0239 33.7583 15.4612L38.0421 19.8342C38.4704 20.2715 38.4704 20.9275 38.0421 21.3648ZM36.2215 30.1108V35.905C36.2215 37.7635 34.8292 39.1847 33.0086 39.1847H18.0155C16.1949 39.1847 14.8027 37.7635 14.8027 35.905V20.5995C14.8027 18.741 16.1949 17.3197 18.0155 17.3197H23.6915C24.334 17.3197 24.7624 17.757 24.7624 18.413C24.7624 19.0689 24.334 19.5062 23.6915 19.5062H18.0155C17.3729 19.5062 16.9446 19.9435 16.9446 20.5995V35.905C16.9446 36.5609 17.3729 36.9982 18.0155 36.9982H33.0086C33.6512 36.9982 34.0796 36.5609 34.0796 35.905V30.1108C34.0796 29.4548 34.508 29.0175 35.1505 29.0175C35.7931 29.0175 36.2215 29.4548 36.2215 30.1108ZM33.0086 17.757L35.7931 20.5995L26.1546 30.4387H23.3702V27.5963L33.0086 17.757Z" fill="black"/>
<mask id="mask0_1_1036" style="mask-type:luminance" maskUnits="userSpaceOnUse" x="14" y="15" width="25" height="25">
<path fill-rule="evenodd" clip-rule="evenodd" d="M38.0421 21.3648L27.3327 32.2973C27.1185 32.5159 26.9043 32.6252 26.583 32.6252H22.2993C21.6567 32.6252 21.2283 32.1879 21.2283 31.532V27.159C21.2283 26.831 21.3354 26.6124 21.5496 26.3937L32.259 15.4612C32.6874 15.0239 33.3299 15.0239 33.7583 15.4612L38.0421 19.8342C38.4704 20.2715 38.4704 20.9275 38.0421 21.3648ZM36.2215 30.1108V35.905C36.2215 37.7635 34.8292 39.1847 33.0086 39.1847H18.0155C16.1949 39.1847 14.8027 37.7635 14.8027 35.905V20.5995C14.8027 18.741 16.1949 17.3197 18.0155 17.3197H23.6915C24.334 17.3197 24.7624 17.757 24.7624 18.413C24.7624 19.0689 24.334 19.5062 23.6915 19.5062H18.0155C17.3729 19.5062 16.9446 19.9435 16.9446 20.5995V35.905C16.9446 36.5609 17.3729 36.9982 18.0155 36.9982H33.0086C33.6512 36.9982 34.0796 36.5609 34.0796 35.905V30.1108C34.0796 29.4548 34.508 29.0175 35.1505 29.0175C35.7931 29.0175 36.2215 29.4548 36.2215 30.1108ZM33.0086 17.757L35.7931 20.5995L26.1546 30.4387H23.3702V27.5963L33.0086 17.757Z" fill="white"/>
</mask>
<g mask="url(#mask0_1_1036)">
<rect x="13.7318" y="14.04" width="25.7025" height="26.238" fill="#62A5FF"/>
</g>
</g>
<defs>
<clipPath id="clip0_1_1036">
<rect width="52.476" height="52.476" fill="white" transform="translate(0.4245 0.920959)"/>
</clipPath>
</defs>
</svg>
